<?xml version="1.0" standalone="no"?>
<!DOCTYPE svg PUBLIC "-//W3C//DTD SVG 20010904//EN"
 "http://www.w3.org/TR/2001/REC-SVG-20010904/DTD/svg10.dtd">
<svg version="1.0" xmlns="http://www.w3.org/2000/svg"
 width="2023.000000pt" height="2023.000000pt" viewBox="0 0 2023.000000 2023.000000"
 preserveAspectRatio="xMidYMid meet">
<metadata>
Created by potrace 1.14, written by Peter Selinger 2001-2017
</metadata>
<g transform="translate(0.000000,2023.000000) scale(0.100000,-0.100000)"
fill="#000000" stroke="none">
<path d="M0 10115 l0 -10115 10115 0 10115 0 0 10115 0 10115 -10115 0 -10115
0 0 -10115z m11950 4244 c1209 -34 1879 -171 2350 -479 114 -75 302 -260 374
-369 139 -210 226 -467 267 -791 20 -153 17 -589 -5 -755 -115 -885 -554
-1328 -1496 -1514 -120 -24 -401 -61 -460 -61 -33 0 -40 -3 -40 -20 0 -11 4
-20 10 -20 5 0 87 -13 182 -30 861 -147 1273 -475 1442 -1149 71 -279 77 -367
86 -1226 10 -888 19 -1006 90 -1152 57 -116 135 -158 290 -158 73 0 94 4 142
28 160 78 270 331 364 836 l29 153 65 -6 c140 -14 141 -15 135 -50 -72 -450
-114 -646 -180 -836 -168 -481 -435 -713 -915 -795 -176 -30 -337 -38 -634
-32 -306 6 -456 20 -661 62 -564 114 -882 402 -1037 940 -52 180 -82 359 -109
650 -6 66 -15 496 -19 955 -9 815 -11 883 -45 1055 -59 303 -192 501 -395 593
-120 54 -200 62 -612 62 l-378 0 0 -1987 0 -1988 385 3 385 2 0 -115 0 -115
-1930 0 -1930 0 0 114 0 114 383 -1 382 -2 3 1591 2 1591 -332 6 c-1387 27
-2290 262 -2870 746 -337 282 -570 682 -662 1142 -49 243 -60 355 -60 649 0
287 12 417 54 626 191 938 858 1460 2110 1654 243 38 486 59 940 83 124 7
4056 3 4300 -4z"/>
<path d="M7916 14124 c-482 -65 -741 -333 -851 -878 -63 -313 -79 -621 -72
-1371 5 -574 12 -713 48 -965 101 -727 369 -1087 889 -1196 49 -10 156 -17
308 -21 l232 -6 0 2227 0 2226 -227 -1 c-130 -1 -271 -7 -327 -15z"/>
<path d="M10790 12310 l0 -1832 298 5 c337 5 421 16 598 76 248 83 425 227
561 456 123 207 196 471 235 855 17 170 17 932 0 1100 -76 743 -320 1052 -907
1146 -71 11 -200 17 -442 21 l-343 6 0 -1833z"/>
</g>
</svg>
